<?xml version="1.0" encoding="UTF-8"?>
<svg id="Camada_1" data-name="Camada 1" xmlns="http://www.w3.org/2000/svg" viewBox="0 0 1035.77 174.62">
  <defs>
    <style>
      .cls-1 {
        fill: #e8e8e8;
      }
    </style>
  </defs>
  <path class="cls-1" d="M148.95,65.96L120.83,1.37h-47.12L0,170.07h66.87c17.14-14.5,41.73-32.18,74.09-46.74,23.97-10.78,46.07-17.09,64.21-20.9-5.57-12.92-11.15-25.84-16.72-38.76-15.34,4.01-32.41,9.5-50.54,17.1-29.1,12.2-52.89,26.48-71.43,39.52,10.39-23.3,20.77-46.61,31.16-69.91l14.44,31.16,36.86-15.58Z"/>
  <g>
    <path class="cls-1" d="M195.43,171.22l19.8-125.33h-46.61l6.76-42.5h139.58l-6.76,42.5h-46.85l-19.8,125.33h-46.13Z"/>
    <path class="cls-1" d="M341.05,171.22l19.8-125.33h-46.61l6.76-42.5h139.58l-6.76,42.5h-46.85l-19.8,125.33h-46.12Z"/>
    <path class="cls-1" d="M446.82,171.22L473.38,3.38h46.12l-26.56,167.84h-46.13Z"/>
    <path class="cls-1" d="M551.38,171.22L525.06,3.38h47.09l16.18,121.47L641.46,3.38h49.5l-79.45,167.84h-60.13Z"/>
    <path class="cls-1" d="M695.8,153.59c-14.73-14.01-21.98-32.12-21.98-54.58,0-28.98,9.42-52.64,28.25-71.24,18.84-18.59,41.78-27.77,68.82-27.77,22.94,0,41.78,7,56.51,21.01,14.49,14.25,21.73,32.36,21.73,54.82.72,57.72-44.68,99.98-97.08,98.77-22.94,0-41.78-7-56.27-21.01ZM787.32,116.4c8.69-10.38,13.04-22.7,13.04-37.43,0-21.98-12.8-36.46-32.84-36.46-12.32,0-22.94,5.07-31.63,15.46-8.94,10.38-13.28,22.94-13.28,37.67,0,22.22,12.56,36.47,32.84,36.47,12.32,0,22.94-5.31,31.88-15.7Z"/>
    <path class="cls-1" d="M849.63,125.57c0-6.28,1.69-14.01,4.83-22.94l43.71,8.94c-1.21,4.11-1.93,7.73-1.93,10.63,0,8.94,9.66,15.7,26.08,15.7,17.39,0,29.46-7,29.46-16.9,0-7-5.07-11.35-15.21-13.28l-21.49-3.86c-34.29-6.28-51.44-22.7-51.44-49.02,0-33.57,25.84-54.82,71.96-54.82,22.22,0,39.6,5.31,51.92,15.94,12.32,10.63,17.87,24.15,16.66,40.81l-45.4,5.55c0-15.46-9.42-25.6-27.05-25.6-14.25,0-21.97,6.52-21.97,14.49,0,7.24,6.28,11.83,19.08,14.01l21.49,3.86c31.64,5.55,47.57,21.01,47.57,46.12,0,17.63-7,32.12-20.77,42.99-13.77,10.87-32.84,16.42-56.99,16.42-45.64,0-70.52-19.08-70.52-49.02Z"/>
  </g>
  <g>
    <path class="cls-1" d="M1027.35,18.5c-4.64,0-8.42-3.78-8.42-8.42s3.78-8.42,8.42-8.42,8.42,3.78,8.42,8.42-3.78,8.42-8.42,8.42ZM1027.35,3.35c-3.71,0-6.73,3.02-6.73,6.73s3.02,6.73,6.73,6.73,6.73-3.02,6.73-6.73-3.02-6.73-6.73-6.73Z"/>
    <path class="cls-1" d="M1025.57,10.88v3.86h-1.71V5.42h3.94c1.99,0,3.06,1.09,3.06,2.53,0,1.24-.69,1.93-1.43,2.2.56.18,1.25.69,1.25,2.34v.44c0,.63,0,1.38.13,1.8h-1.67c-.17-.4-.18-1.11-.18-2.06v-.16c0-1.12-.3-1.64-1.86-1.64h-1.52ZM1025.57,9.47h1.8c1.21,0,1.71-.46,1.71-1.33s-.55-1.31-1.63-1.31h-1.88v2.64Z"/>
  </g>
</svg>